<svg xmlns="http://www.w3.org/2000/svg" viewBox="0 0 80 80" width="16px" height="16px"><path fill="#d84e4e" d="M75.432 21.297L72.755 72.756 22.561 75.433z"/><path fill="#c74343" d="M74.864,22.595L72.279,72.28l-48.465,2.585L74.864,22.595 M76,20L21.308,76l51.923-2.769L76,20 L76,20z"/><path fill="#e26666" d="M72.245 72.537L48.223 48.43 75.434 21.867 72.762 72.634z"/><path fill="#c74343" d="M74.867,23.119L72.3,71.885l-23.366-23.45L74.867,23.119 M76,20.615L47.512,48.425L72,73 l1.231,0.231L76,20.615L76,20.615z"/><path fill="#ed7e7e" d="M19.098,75.5c-4.559,0-8.171-1.3-10.734-3.863c-8.9-8.9-1.949-30.333,15.495-47.778 C35.799,11.918,49.994,4.5,60.902,4.5c4.559,0,8.171,1.3,10.734,3.863c8.9,8.9,1.949,30.333-15.495,47.778 C44.201,68.082,30.006,75.5,19.098,75.5z"/><path fill="#c74343" d="M60.903,4v1c4.421,0,7.913,1.251,10.38,3.717c8.705,8.705,1.754,29.821-15.495,47.071 C43.937,67.638,29.879,75,19.098,75c-4.422,0-7.915-1.251-10.381-3.717c-8.705-8.705-1.754-29.821,15.495-47.071 C36.062,12.362,50.121,5.001,60.902,5L60.903,4 M60.902,4c-10.626,0.001-25.006,7.114-37.397,19.505 C5.837,41.173-1.1,62.88,8.01,71.99C10.73,74.711,14.573,76,19.098,76c10.626,0,25.006-7.114,37.397-19.505 C74.163,38.827,81.1,17.12,71.99,8.01C69.27,5.289,65.427,4,60.902,4L60.902,4z"/><g><path fill="#f7a3a3" d="M12.16 48.859L4.5 60.349 4.5 40.133 12.401 26.306 26.296 12.411 42.118 4.5 60.93 4.5 53.093 12.189 73.578 19.993 47.383 29.695 55.22 55.164 29.696 45.348 20.018 73.415z"/><path fill="#c74343" d="M59.707,5L53.3,11.286l-1.114,1.093l1.458,0.555l18.512,7.052l-24.504,9.075l-0.886,0.328 l0.278,0.904l7.395,24.034l-24.08-9.262l-0.967-0.372l-0.338,0.979L20.035,71.83l-7.083-22.134l-0.633-1.977l-1.152,1.728L5,58.697 V40.266l7.802-13.653l13.791-13.791L42.236,5H59.707 M62.154,4H42l-16,8L12,26L4,40v22l8-12l8,25l10-29l26,10l-8-26l27-10l-21-8 L62.154,4L62.154,4z"/></g><g><path fill="#ed7e7e" d="M4.603 39.953L12.401 26.306 26.296 12.411 41.964 4.577 53.405 12.204 47.568 29.715 29.765 45.54 12.196 49.444z"/><path fill="#c74343" d="M41.928,5.154l10.882,7.254L47.136,29.43L29.53,45.08l-17.138,3.809l-7.186-8.983l7.596-13.294 l13.791-13.791L41.928,5.154 M42,4l-16,8L12,26L4,40l8,10l18-4l18-16l6-18L42,4L42,4z"/></g></svg>